<?xml version="1.0" encoding="UTF-8"?>
<!-- Generator: Adobe Illustrator 21.1.0, SVG Export Plug-In . SVG Version: 6.00 Build 0)  -->
<!DOCTYPE svg PUBLIC "-//W3C//DTD SVG 1.1 Tiny//EN" "http://www.w3.org/Graphics/SVG/1.1/DTD/svg11-tiny.dtd">
<svg version="1.1" baseProfile="tiny" id="Layer_1" xmlns="http://www.w3.org/2000/svg" xmlns:xlink="http://www.w3.org/1999/xlink" x="0px" y="0px" viewBox="0 0 201 44" xml:space="preserve">
<title>E7A7F742-1BEE-461E-B2F2-73B5945FECF3</title>
<desc>Created with sketchtool.</desc>
<g id="Symbols">
	<g id="nakkihero-asiointipalvelut" transform="translate(-210.000000, -68.000000)">
		<g id="Group-2">
			<g id="logomainDblue" transform="translate(210.000000, 68.000000)">
				<polygon id="Fill-1" fill="#00205B" points="0,43.2 43.5,43.2 43.5,0.1 0,0.1     "/>
				<path id="Fill-2" fill="#FDB700" d="M28,17.6c-1-0.1-2.6-0.2-3.4-0.2c-0.1-0.4-0.2-0.9-0.4-1.3c-0.3-1-0.2-1.3,0.1-2.1      c0.3-0.7,0.9-1.4,0.9-1.4c0.2-0.3,0.6-0.7,1-1c0.7-0.5,0.9-0.6,2-0.6c0.6,0,1.5,0,2,0l-1.7,1.8l-3.3,0c0.2,0.7,0.8,3,0.8,3.1      c0,0,0.2,0.8,0.4,1.6l0.5-0.5l5.9-6.2l-2.2-2L29.6,4l2.9,2.6l0.7,4l0.7-0.8C33.7,9.5,33.7,9,34,8.7c0.4-0.4,1-0.4,1.4-0.1      c0.4,0.4,0.4,1,0.1,1.4c-0.3,0.3-0.7,0.4-1.1,0.3l-0.7,0.8l4.1,0.2l2.9,2.6l-4.9-0.7l-2.2-2L28,17.6L28,17.6z"/>
				<path id="Fill-4" fill="#FDB700" d="M28.4,20c-0.1-0.2-0.6-0.7-0.9-1.1c-0.4-0.4-0.7-0.7-1-0.9l1.1,0.1c1.2,0.1,2.2,0.2,2.2,0.2      l3,0.2l-0.5-3.2l1.6-1.7c0.1,0.5,0.2,1.1,0.3,1.7c0.2,1.1,0.1,1.3-0.3,2c-0.3,0.6-0.9,1.3-1,1.4c-0.2,0.2-0.7,0.7-1.1,1      c-0.7,0.4-1,0.5-2,0.5C29.3,20.1,28.8,20.1,28.4,20"/>
				<path id="Fill-6" fill="#FDB700" d="M16.3,28.6c0.9,1,1.5,1.3,2.6,1.5l0,0.1c0.1,0.3,0.2,0.7,0.3,1c0.3,1,0.2,1.3-0.1,2.1      c-0.3,0.7-0.9,1.4-0.9,1.4c-0.2,0.2-0.6,0.8-1.1,1.1c-0.7,0.5-0.9,0.6-2,0.6c-0.6,0-1.5,0-2,0l1.7-1.8l3.4,0l-0.8-3.2l-0.5-1.6      c0,0-2,2-2,2l-6.7,7l-0.3-0.3l6.3-7.3c0,0,1-1.2,1.6-1.8c-1.2-0.1-2.3-0.2-2.3-0.2L10.4,29l0.5,3.3L9.3,34      c-0.1-0.5-0.2-1.1-0.3-1.7c-0.2-1.1-0.1-1.3,0.3-2c0.3-0.7,1-1.4,1-1.4c0.2-0.2,0.7-0.8,1.2-1.1c0.7-0.4,1-0.5,2-0.5      c0.5,0,1,0.1,1.5,0.1l0.2,0l0.1,0C15.5,27.7,15.9,28.2,16.3,28.6"/>
				<path id="Fill-8" fill="#FDB700" d="M16.6,17.1c-0.1,0.4-0.2,1-0.4,1.4c-0.1,0.5-0.3,1.1-0.5,1.5l-0.2,0c-0.5,0-1.2,0.1-1.7,0.1      c-1.1,0.1-1.3,0-2-0.5c-0.5-0.3-0.9-0.8-1.1-1c-0.1-0.1-0.7-0.8-1-1.4c-0.4-0.7-0.4-1-0.3-2c0.1-0.6,0.2-1.1,0.3-1.7l1.6,1.7      l-0.5,3.2l3-0.2c0,0,1-0.1,2.2-0.2l-0.3-0.3L10,11.3l-2.2,2l-4.9,0.7l2.9-2.6l4.1-0.2l-0.7-0.8c-0.4,0.1-0.8,0-1.1-0.3      C7.7,9.6,7.7,9,8.1,8.7s1-0.3,1.4,0.1C9.8,9,9.9,9.5,9.7,9.8l0.7,0.8l0.7-4L13.9,4l-1.1,4.7l-2.2,2L16.6,17.1"/>
				<path id="Fill-10" fill="#FDB700" d="M34.5,32.3c-0.1,0.6-0.2,1.1-0.3,1.7l-1.6-1.7l0.5-3.3L30,29.2c0,0-1,0.1-2.3,0.2      c0.5,0.6,1.6,1.8,1.6,1.8l6.3,7.3l-0.3,0.3l-6.7-7c0,0-1-1-1.6-1.6c0.1-0.4,0.3-0.8,0.4-1.2c0.1-0.5,0.3-1,0.5-1.5l0.5,0      c0.5,0,1-0.1,1.5-0.1c1.1-0.1,1.3,0,2,0.5c0.5,0.3,1,0.9,1.2,1.1c0,0,0.7,0.7,1,1.4C34.6,31,34.7,31.3,34.5,32.3"/>
				<path id="Fill-12" fill="#FDB700" d="M24.4,27.3l-2.6-2.7c-0.2-0.2-0.9-0.9-0.9-0.9l-0.3-0.4L18,20.4c-0.4,1.4-1,3.4-1.1,3.9      l-0.8,3.2c0.3,0,0.7,0.1,1.3,0.1l0.9-1.1l2.2-2.5c0.1,0.1,0.2,0.3,0.3,0.4c0.2,0.2,0.4,0.4,0.5,0.6l-2.2,2.4l-0.4,0.4      c0.2,0,0.5,0,0.7,0c2,0.1,3.6,0,5.2,0L24.4,27.3z M26.2,31.4l-0.8,3.2l3.4,0l1.7,1.8c-0.5,0-1.4,0-2,0c-1.1,0-1.3-0.1-2-0.6      c-0.5-0.3-1-0.9-1.1-1.1c0,0-0.6-0.8-0.9-1.4c-0.3-0.7-0.4-1-0.1-2.1c0.1-0.5,0.3-1.1,0.4-1.6c0.1-0.4,0.3-0.9,0.4-1.2      c0.1-0.5,0.3-1,0.5-1.5l0.2-0.6c0.5-1.5,0.9-2.7,1-3.1l0.9-3.2c-0.3,0-1-0.1-1.7-0.2l-3,3.4l-0.3,0.3l0.1,0.1l2.5,2.8l-0.6,1.8      c-0.1,0.4-0.3,1-0.4,1.4c-1.5,0.1-2.9,0.1-3.5,0.1c-0.5,0-1.2,0-1.7-0.1c-1.1-0.2-1.3-0.3-1.9-0.9c-0.4-0.4-0.8-0.9-1-1.2      c0,0-0.6-0.8-0.9-1.4c-0.3-0.7-0.4-1-0.1-2.1c0.1-0.6,0.3-1.2,0.5-1.7c0,0,0.4-1.3,0.8-2.5c0,0,0.3-0.8,0.4-1.4      c0.1-0.4,0.2-0.8,0.3-1.1c0.2-0.8,0.4-1.6,0.4-1.6c0-0.1,0.6-2.4,0.8-3.1l-3.3,0L13.2,11c0.5,0,1.4,0,2,0c1.1,0,1.3,0.1,2,0.6      c0.4,0.3,0.8,0.8,1,1c0,0,0.7,0.8,0.9,1.4c0.3,0.7,0.4,1,0.1,2.1c-0.1,0.6-0.3,1.2-0.4,1.7l0,0.1l-0.4,1.2l0.4,0.4l0.1,0.1      l0.1,0.1h0l2.4,2.6l0.3,0.4l0.2-0.2l2.5-2.7c-0.1,0-0.2,0-0.2,0c-2-0.1-2.6-0.1-4.6,0l-0.4-0.4L19,19l0.3-1.1      c1.4-0.1,2.3-0.1,3.6-0.1c0.6,0,1.2,0,1.8,0.1c1.1,0.2,1.4,0.3,1.9,0.9c0.5,0.4,1,1.1,1.1,1.2c0.2,0.2,0.6,0.8,0.8,1.4      c0.3,0.8,0.3,1,0.1,2.1c-0.1,0.5-0.3,1.1-0.5,1.6l-0.8,2.5c-0.1,0.4-0.3,0.9-0.4,1.3c-0.2,0.6-0.4,1.3-0.5,1.8L26.2,31.4      L26.2,31.4z"/>
				<polygon id="Fill-14" fill="#00205B" points="156.4,26.2 161.3,26.2 161.3,4.7 156.4,4.7     "/>
				<polygon id="Fill-16" fill="#00205B" points="74.6,0.7 54.6,0.7 54.6,4.7 62,4.7 62,26.2 67.3,26.2 67.3,4.7 74.6,4.7     "/>
				<path id="Fill-17" fill="#00205B" d="M96.9,4.7v12.2c0,3.8-2.4,5.3-4.9,5.3c-2.8,0-4.8-1.9-4.8-4.9V4.7h-4.9V17      c0,6.6,4.1,9.5,9.7,9.5c5.3,0,9.7-2.5,9.7-9.6V4.7H96.9"/>
				<polygon id="Fill-18" fill="#00205B" points="126.6,22.3 116.9,22.3 116.9,4.7 112.1,4.7 112.1,26.2 126.6,26.2     "/>
				<polygon id="Fill-19" fill="#00205B" points="148.6,22.3 138.9,22.3 138.9,4.7 134.1,4.7 134.1,26.2 148.6,26.2     "/>
				<polygon id="Fill-20" fill="#00205B" points="70.4,34.8 62,34.8 62,36.4 65.2,36.4 65.2,43.4 67.3,43.4 67.3,36.4 70.4,36.4           "/>
				<path id="Fill-21" fill="#00205B" d="M80.7,34.8v4.9c0,1.5-1.1,2.1-2.2,2.1c-1.2,0-2.1-0.7-2.1-2v-5h-2.2v4.9      c0,2.7,1.8,3.8,4.3,3.8c2.4,0,4.3-1,4.3-3.8v-4.9H80.7"/>
				<polygon id="Fill-22" fill="#00205B" points="94.3,41.8 90.2,41.8 90.2,34.8 88,34.8 88,43.4 94.3,43.4     "/>
				<polygon id="Fill-23" fill="#00205B" points="104.9,41.8 100.7,41.8 100.7,34.8 98.6,34.8 98.6,43.4 104.9,43.4     "/>
				<path id="Fill-24" fill="#00205B" d="M111.8,39.2c0-0.7-0.6-1.3-1.3-1.3c-0.7,0-1.3,0.6-1.3,1.3c0,0.7,0.6,1.3,1.3,1.3      C111.2,40.5,111.8,40,111.8,39.2"/>
				<path id="Fill-25" fill="#00205B" d="M125.3,40.8c-1.2,0.6-2,0.9-3.1,0.9c-1.8,0-3.1-1.1-3.1-2.6c0-1.5,1.3-2.6,3.1-2.6      c1.1,0,2,0.4,3,0.9v-1.9c-0.9-0.5-1.9-0.8-3.1-0.8c-3.3,0-5.2,2.1-5.2,4.4c0,2.2,1.7,4.4,5,4.4c1.3,0,2.2-0.2,3.4-0.9V40.8"/>
				<path id="Fill-26" fill="#00205B" d="M136.7,34.8v4.9c0,1.5-1.1,2.1-2.2,2.1c-1.2,0-2.1-0.7-2.1-2v-5h-2.2v4.9      c0,2.7,1.8,3.8,4.3,3.8c2.4,0,4.3-1,4.3-3.8v-4.9H136.7"/>
				<path id="Fill-27" fill="#00205B" d="M149.9,35.4c-1.1-0.5-2-0.7-2.9-0.7c-2,0-3.3,1-3.3,2.5c0,3.1,4.4,2.6,4.4,4      c0,0.5-0.4,0.8-1.3,0.8c-1,0-1.7-0.3-3-1.1v1.8c0.9,0.4,1.6,0.8,3.1,0.8c1.9,0,3.3-1,3.3-2.6c0-3-4.4-2.6-4.4-3.9      c0-0.4,0.5-0.7,1.3-0.7c0.7,0,1.5,0.2,2.7,0.8V35.4"/>
				<polygon id="Fill-28" fill="#00205B" points="162.4,34.8 154,34.8 154,36.4 157.1,36.4 157.1,43.4 159.3,43.4 159.3,36.4       162.4,36.4     "/>
				<path id="Fill-29" fill="#00205B" d="M175.7,39.1c0-2.1-1.7-4.4-4.9-4.4c-3.3,0-5,2.3-5,4.4c0,2.2,1.8,4.4,5,4.4      C173.9,43.5,175.7,41.3,175.7,39.1 M173.5,39.1c0,1.6-1.1,2.6-2.7,2.6c-1.6,0-2.7-1-2.7-2.6c0-1.6,1.1-2.6,2.7-2.6      C172.4,36.5,173.5,37.5,173.5,39.1"/>
				<polygon id="Fill-30" fill="#00205B" points="184.5,38 181.7,34.8 179.8,34.8 179.8,43.4 182,43.4 182,38 184.3,40.7       184.6,40.7 187,38 187,43.4 189.1,43.4 189.1,34.8 187.2,34.8     "/>
				<path id="Fill-31" fill="#00205B" d="M200.1,35.4c-1.1-0.5-2-0.7-2.9-0.7c-2,0-3.3,1-3.3,2.5c0,3.1,4.4,2.6,4.4,4      c0,0.5-0.4,0.8-1.3,0.8c-1,0-1.7-0.3-3-1.1v1.8c0.9,0.4,1.6,0.8,3.1,0.8c1.9,0,3.3-1,3.3-2.6c0-3-4.4-2.6-4.4-3.9      c0-0.4,0.5-0.7,1.3-0.7c0.7,0,1.5,0.2,2.7,0.8V35.4"/>
			</g>
		</g>
	</g>
</g>
</svg>